<svg
width="34"
height="26"
viewBox="0 0 34 26"
fill="none"
xmlns="http://www.w3.org/2000/svg"
>
<path
  d="M12.8174 14.3342L11.037 15.5275C10.9802 15.5655 10.9038 15.5542 10.8591 15.5023C10.5227 15.1116 9.1171 13.6252 7.29136 13.7403C5.19959 13.8723 4.21069 16.0409 4.20263 16.0587L4.20221 16.0596C3.68566 17.2461 3.70005 18.0198 4.01725 19.5034C4.59372 21.2333 5.32694 21.8418 7.27767 22.3483C7.28662 22.3506 7.29622 22.352 7.30547 22.3524C8.80708 22.41 9.59737 21.9852 10.8566 20.5237C10.9013 20.4719 10.9789 20.4623 11.034 20.5029L12.8198 21.8195C12.8729 21.8586 12.8879 21.9323 12.8548 21.9894C11.5135 24.3032 10.2297 24.9017 7.29136 25.0015C5.39658 24.811 4.38054 24.4307 2.74838 22.8432C2.72972 22.825 2.71177 22.8047 2.6961 22.7839C1.65095 21.3957 1.343 20.6322 1.1138 19.3047C0.952736 18.2903 0.971693 17.7339 1.1138 16.7212C1.61595 14.459 2.22055 13.5769 3.6466 12.4154C5.5672 11.0231 6.89791 10.7982 9.59273 11.3461C9.62299 11.3523 9.65378 11.3615 9.68242 11.3731C11.3639 12.0508 12.0921 12.6749 12.8606 14.1673C12.8906 14.2257 12.872 14.2977 12.8174 14.3342Z"
  fill="#255BE3"
  stroke="#255BE3"
  stroke-width="0.130276"
/>
<rect
  x="15.0859"
  y="11.0703"
  width="2.84168"
  height="13.9109"
  rx="0.390829"
  fill="#255BE3"
/>
<rect
  x="30.1582"
  y="10.6719"
  width="2.84168"
  height="13.9109"
  rx="0.390829"
  fill="#255BE3"
/>
<path
  d="M27.0611 24.5183H25.8871C23.9129 24.5183 22.3125 22.9179 22.3125 20.9437C22.3125 20.9058 22.3433 20.875 22.3812 20.875H24.6471C24.8443 20.875 25.0198 20.9896 25.1273 21.155C25.2382 21.3256 25.3526 21.4498 25.487 21.5592C25.7733 21.792 26.1517 21.8686 26.5207 21.8686H27.425C27.7081 21.8686 27.9394 22.0946 27.946 22.3776L27.9741 23.5838C27.986 24.0964 27.5738 24.5183 27.0611 24.5183Z"
  fill="#255BE3"
  stroke="#255BE3"
  stroke-width="0.130276"
/>
<path
  d="M22.25 8.28145C22.25 8.06561 22.425 7.89062 22.6408 7.89062H24.7009C24.9167 7.89062 25.0917 8.06561 25.0917 8.28145V21.0066H22.25V8.28145Z"
  fill="#255BE3"
/>
<path
  d="M22.25 8.28145C22.25 8.06561 22.425 7.89062 22.6408 7.89062H24.7009C24.9167 7.89062 25.0917 8.06561 25.0917 8.28145V21.0066H22.25V8.28145Z"
  fill="#255BE3"
/>
<path
  d="M20.4182 13.7188C20.2023 13.7188 20.0273 13.5438 20.0273 13.3279V11.0624C20.0273 10.8466 20.2023 10.6716 20.4182 10.6716H27.6673C27.8832 10.6716 28.0582 10.8466 28.0582 11.0624V13.3279C28.0582 13.5438 27.8832 13.7188 27.6673 13.7188H20.4182Z"
  fill="#255BE3"
/>
<path
  d="M23.9199 3.91463C19.7878 3.8539 18.249 7.51936 18.0203 8.13359C18.0006 8.18648 17.9512 8.22037 17.8947 8.22037H15.2539C15.1688 8.22037 15.1068 8.14299 15.1315 8.06156C15.453 7.00207 17.5553 1 23.9199 1C30.2758 1 32.5859 6.98595 32.9484 8.05726C32.9763 8.13949 32.9141 8.22037 32.8273 8.22037H30.2467C30.1938 8.22037 30.1471 8.19102 30.1252 8.14281C29.8637 7.56682 28.0676 3.97558 23.9199 3.91463Z"
  fill="#FF3C28"
  stroke="#FF3C28"
  stroke-width="0.130276"
/>
</svg>